<?xml version="1.0" encoding="utf-8"?>
<!-- Generator: Adobe Illustrator 25.4.1, SVG Export Plug-In . SVG Version: 6.00 Build 0)  -->
<svg version="1.1" xmlns="http://www.w3.org/2000/svg" xmlns:xlink="http://www.w3.org/1999/xlink" x="0px" y="0px"
	 viewBox="0 0 700 400" style="enable-background:new 0 0 700 400;" xml:space="preserve">
<style type="text/css">
	.st0{enable-background:new    ;}
	.st1{fill:#221D1C;}
	.st2{fill:none;stroke:#0A0A15;stroke-miterlimit:100;}
	.st3{fill:#1C1816;}
	.st4{fill:none;stroke:#221D1C;stroke-miterlimit:100;}
	.st5{fill:#CAC7AE;}
	.st6{fill:#DBD7BE;}
</style>
<g id="Rectangle_2_00000029030857480868754160000002001007336994425751_" class="st0">
	<g id="Rectangle_2">
		<g>
			<rect class="st1" width="700" height="400"/>
		</g>
		<g>
			<rect class="st2" width="700" height="400"/>
		</g>
	</g>
</g>
<g id="Rectangle_3_00000014601177858343627110000009710070687766013066_" class="st0">
	<g id="Rectangle_3">
		<g>
			<path class="st3" d="M0,0v400h132V0H0z"/>
		</g>
		<g>
			<path class="st2" d="M0,0v400h132V0H0z"/>
		</g>
	</g>
</g>
<g id="Rectangle_1_copy_3_00000155118054418148207270000013820350915911026565_" class="st0">
	<g id="Rectangle_1_copy_3">
		<g>
			<polygon class="st1" points="116.29,400 282.8,400 389.98,0 223.47,0 			"/>
		</g>
		<g>
			<polygon class="st4" points="116.29,400 282.8,400 389.98,0 223.47,0 			"/>
		</g>
	</g>
</g>
<g id="Rectangle_1_copy_5_00000047776872996242024730000004236007616738525836_" class="st0">
	<g id="Rectangle_1_copy_5">
		<g>
			<polygon class="st3" points="143.29,400 309.8,400 416.98,0 250.47,0 			"/>
		</g>
		<g>
			<polygon class="st4" points="143.29,400 309.8,400 416.98,0 250.47,0 			"/>
		</g>
	</g>
</g>
<g id="Rectangle_1_copy_4_00000038378776313031399350000004982900944846960816_" class="st0">
	<g id="Rectangle_1_copy_4">
		<g>
			<polygon class="st3" points="129.29,400 295.8,400 402.98,0 236.47,0 			"/>
		</g>
		<g>
			<polygon class="st4" points="129.29,400 295.8,400 402.98,0 236.47,0 			"/>
		</g>
	</g>
</g>
<g id="Rectangle_1_copy_2_00000044153265590075685560000009675718325396641962_" class="st0">
	<g id="Rectangle_1_copy_2">
		<g>
			<polygon class="st5" points="246.71,0 80.2,0 0,299.3 0,400 139.53,400 			"/>
		</g>
		<g>
			<polygon class="st4" points="246.71,0 80.2,0 0,299.3 0,400 139.53,400 			"/>
		</g>
	</g>
</g>
<g id="Rectangle_1_copy_00000049922150680950984960000003138897103705601954_" class="st0">
	<g id="Rectangle_1_copy">
		<g>
			<path class="st5" d="M93.2,0L0,347.82V400h152.53L259.71,0H93.2z"/>
		</g>
		<g>
			<path class="st4" d="M93.2,0L0,347.82V400h152.53L259.71,0H93.2z"/>
		</g>
	</g>
</g>
<g id="Rectangle_1_00000066483002455689210570000017459118000150133908_" class="st0">
	<g id="Rectangle_1">
		<g>
			<path class="st6" d="M107.2,0L0.02,400h166.52L273.71,0H107.2z"/>
		</g>
		<g>
			<path class="st4" d="M107.2,0L0.02,400h166.52L273.71,0H107.2z"/>
		</g>
	</g>
</g>
<g id="Rectangle_1_copy_6_00000010996620356973478200000003656164784311898780_" class="st0">
	<g id="Rectangle_1_copy_6">
		<g>
			<path class="st1" d="M667.73,0L560.55,400H700V0H667.73z"/>
		</g>
		<g>
			<path class="st4" d="M667.73,0L560.55,400H700V0H667.73z"/>
		</g>
	</g>
</g>
<g id="Rectangle_1_copy_7_00000101074810877863471600000010754684747657768839_" class="st0">
	<g id="Rectangle_1_copy_7">
		<g>
			<path class="st3" d="M694.73,0L587.55,400H700V0H694.73z"/>
		</g>
		<g>
			<path class="st4" d="M694.73,0L587.55,400H700V0H694.73z"/>
		</g>
	</g>
</g>
<g id="Rectangle_1_copy_8_00000039816558395947422660000005591500381462255500_" class="st0">
	<g id="Rectangle_1_copy_8">
		<g>
			<path class="st3" d="M680.73,0L573.55,400H700V0H680.73z"/>
		</g>
		<g>
			<path class="st4" d="M680.73,0L573.55,400H700V0H680.73z"/>
		</g>
	</g>
</g>
<g id="Rectangle_1_copy_9_00000038407102130899332050000007181923316488393354_" class="st0">
	<g id="Rectangle_1_copy_9">
		<g>
			<path class="st5" d="M524.47,0L417.29,400H583.8L690.98,0H524.47z"/>
		</g>
		<g>
			<path class="st4" d="M524.47,0L417.29,400H583.8L690.98,0H524.47z"/>
		</g>
	</g>
</g>
<g id="Rectangle_1_copy_10_00000036232764767755922540000009010845902015878071_" class="st0">
	<g id="Rectangle_1_copy_10">
		<g>
			<path class="st5" d="M537.47,0L430.29,400H596.8L700,14.86V0H537.47z"/>
		</g>
		<g>
			<path class="st4" d="M537.47,0L430.29,400H596.8L700,14.86V0H537.47z"/>
		</g>
	</g>
</g>
<g id="Rectangle_1_copy_11_00000133509867920464824630000005072071970191147919_" class="st0">
	<g id="Rectangle_1_copy_11">
		<g>
			<path class="st6" d="M551.47,0L444.29,400H610.8L700,67.11V0H551.47z"/>
		</g>
		<g>
			<path class="st4" d="M551.47,0L444.29,400H610.8L700,67.11V0H551.47z"/>
		</g>
	</g>
</g>
<g id="Layer_15">
</g>
</svg>
